<svg width="140" height="132" viewBox="0 0 140 132" fill="none" xmlns="http://www.w3.org/2000/svg">
<path d="M57.5859 0.172627C57.3453 0.269845 55.9672 0.669518 54.5234 1.07999C51.5812 1.91174 50.7609 2.2034 49.4922 2.82991C47.3922 3.8669 46.2218 5.18474 45.6093 7.20471L45.3687 7.98245L44.3734 8.60896C43.8156 8.94382 42.5578 9.75397 41.5625 10.4021C40.5672 11.0502 39.714 11.6119 39.6484 11.6443C39.5937 11.6767 39.6593 11.5687 39.7906 11.3959C40.764 10.1536 41.6609 8.51174 42.2187 6.96706C42.5687 5.96248 43.7718 1.51207 43.6843 1.51207C43.4 1.51207 39.6922 3.8561 38.3359 4.90389C37.3406 5.66003 35.6234 7.37754 34.9125 8.30651C34.1031 9.3759 33.3265 10.8558 33.0203 11.9468C32.6922 13.1134 32.6922 14.5824 33.0312 15.5546L33.2718 16.2568L32.9 16.57C31.0625 18.1471 29.7062 19.4109 28.4922 20.664L27.0375 22.1654L27.5734 21.1392C28.2187 19.897 28.6781 18.5576 29.0062 16.9373C29.2031 15.9327 29.2468 15.3386 29.2468 13.5563C29.2578 11.5795 29.05 8.55495 28.8859 8.24169C28.8422 8.16608 28.4156 8.59816 27.8359 9.32189C22.9687 15.2846 22.05 16.9589 21.6453 20.5775C21.3828 23.0296 21.9734 26.335 22.6953 26.443C22.8375 26.4646 23.2093 26.227 23.7125 25.8165L24.5109 25.1468L23.5375 26.4322C21.9406 28.517 19.775 31.8332 18.9656 33.3995C18.8125 33.7019 18.6703 33.918 18.6375 33.8964C18.6156 33.864 18.6484 33.5831 18.7031 33.259C18.9218 32.1464 19.0093 30.3425 18.9218 28.9167C18.7906 26.8319 18.5937 26.0541 16.9859 21.0636C16.6468 20.0266 16.3406 19.1301 16.2968 19.0869C16.2093 18.9896 16.0562 19.4541 14.7656 23.4401C13.464 27.4908 13.0265 29.2191 12.7968 31.3255C12.5015 33.9288 13.0046 35.9379 14.6453 38.8113L15.3671 40.0859L15.6843 39.7294C15.8593 39.535 15.9687 39.4486 15.9359 39.535C15.9031 39.6214 15.6843 40.1831 15.4437 40.788C14.864 42.1923 14.2406 43.9962 13.7265 45.6921C13.5078 46.4374 13.3 47.118 13.2671 47.2044C13.2343 47.2908 13.0921 46.8803 12.9609 46.2862C12.3593 43.7369 11.189 41.0149 9.79996 38.9517C9.24215 38.1091 8.44371 36.8777 8.03902 36.2188C7.30621 35.009 6.95621 34.5769 6.82496 34.7065C6.78121 34.7497 6.70465 35.6679 6.6609 36.7481C6.60621 37.8391 6.51871 39.4054 6.45309 40.2371C6.29996 42.4407 6.32184 45.9838 6.50777 47.3124C7.0109 50.9959 8.1484 53.1131 10.4125 54.5605C10.7843 54.7982 11.2 55.0142 11.3421 55.0466C11.6375 55.1222 11.6375 55.0358 11.4296 56.9045C11.2328 58.7085 11.0468 61.6034 11.0468 62.9212V63.8934L10.4343 62.77C9.25309 60.5772 7.28434 57.6823 5.9609 56.2024C5.27184 55.4355 1.61871 52.4973 1.34527 52.4973C1.22496 52.4973 1.19215 52.573 1.2359 52.735C1.37808 53.3939 2.00152 56.5373 2.30777 58.1684C3.57652 64.9844 5.49059 68.5275 9.18746 70.9255C9.97496 71.4332 11.3421 72.1785 11.5609 72.2109C11.5718 72.2109 11.6812 72.8698 11.8125 73.6692C12.1078 75.5055 12.6 77.8388 13.0046 79.405C13.1796 80.064 13.289 80.5608 13.2453 80.5176C13.2015 80.4636 12.939 80.1288 12.6656 79.7723C11.4406 78.1736 10.5 77.4499 4.10152 73.2155C2.4609 72.1353 0.054647 70.7419 0.0218345 70.8499C-0.0219155 70.9795 4.04684 79.1026 4.97652 80.7445C6.11402 82.732 6.72652 83.553 8.03902 84.8492C9.35152 86.1563 10.8828 87.2365 12.2718 87.863C13.6062 88.4571 15.3343 89.008 15.8921 89.008C16.2531 89.008 16.4062 89.0512 16.4062 89.1484C16.4062 89.5481 19.5781 95.4892 20.6171 97.0554C20.7921 97.3147 20.6937 97.2607 20.0703 96.7638C18.9109 95.8456 17.5328 95.0247 15.4765 94.0309C13.2562 92.9615 12.0531 92.5402 9.41715 91.8705C8.33434 91.6005 6.91246 91.19 6.26715 90.9631C4.42965 90.315 4.39684 90.4338 5.93902 92.2702C6.55152 92.9939 7.56871 94.2577 8.19215 95.0571C10.6093 98.1572 14.7546 101.787 17.0953 102.834C18.0687 103.267 20.0593 103.85 21.3718 104.077C22.214 104.228 22.75 104.25 23.8 104.196C24.5437 104.163 25.2656 104.088 25.4078 104.034C25.6484 103.936 25.7578 104.023 26.5453 104.919C28.4484 107.08 31.2156 109.748 33.3593 111.498C33.764 111.822 33.4578 111.703 31.675 110.806C29.2468 109.597 29.0172 109.532 25.5937 109.056C20.0156 108.279 13.6718 107.782 13.6718 108.117C13.6718 108.268 14.3281 108.776 16.6796 110.45C20.7484 113.356 22.5422 114.425 24.8281 115.289C28.0328 116.51 29.6953 116.877 32.1015 116.877C34.2781 116.877 35.7984 116.585 37.6031 115.829C38.5 115.451 38.5 115.44 38.314 115.224C38.2047 115.106 38.4343 115.214 38.8281 115.473C40.9062 116.855 45.6531 119.372 47.8187 120.226C48.1687 120.366 48.4312 120.496 48.4203 120.517C48.3984 120.539 47.8625 120.463 47.239 120.366C46.3968 120.236 45.4234 120.182 43.5312 120.182C40.2062 120.182 39.8672 120.226 33.0312 121.511C31.7953 121.738 29.9906 122.073 29.0172 122.246C28.0328 122.408 27.2453 122.591 27.2672 122.645C27.3218 122.797 35.7765 125.27 37.2422 125.562C39.364 125.983 40.775 126.091 43.2797 126.026C47.4797 125.918 49.9625 125.108 52.2812 123.099L53.3093 122.213L54.7312 122.613C56.3828 123.077 58.625 123.574 60.2437 123.855L61.3703 124.05L60.5828 124.244C58.5047 124.784 57.3234 125.292 51.1328 128.327C46.4297 130.639 44.7343 131.535 44.7343 131.697C44.7343 131.913 51.1109 131.676 53.9218 131.352C57.0609 130.974 60.4843 130.001 63.164 128.705C64.7718 127.927 65.9859 126.966 67.2656 125.486L67.9765 124.654H70.1203H72.264L73.7843 126.07C76.6062 128.705 77.0328 128.932 81.8125 130.358C84.8203 131.254 85.389 131.341 91.4812 131.741C96.1297 132.043 96.2937 132.032 95.6047 131.46C95.1781 131.103 92.7172 129.872 91.6234 129.461C90.6172 129.094 89.939 128.748 88.6484 127.949C86.2531 126.469 82.8187 125.065 79.6578 124.276C79.2203 124.168 78.8703 124.06 78.8922 124.05C78.9031 124.039 79.8984 123.834 81.1015 123.585C83.2781 123.153 85.7172 122.526 87.2812 122.019C87.839 121.835 88.025 121.803 87.8609 121.922C87.7187 122.008 87.6094 122.202 87.6094 122.332C87.6094 122.991 90.289 124.644 92.6297 125.411C94.1609 125.918 95.5172 126.08 98.3281 126.091C100.384 126.091 100.997 126.059 102.047 125.864C104.158 125.475 110.906 123.52 112.033 122.959C112.427 122.764 112.405 122.537 111.978 122.397C111.431 122.235 107.505 121.468 105.055 121.047C100.187 120.215 97.5078 119.945 95.7359 120.118C93.8656 120.301 91.6453 120.69 90.5078 121.036C89.4797 121.338 89.7422 121.187 91.3281 120.561C92.2031 120.215 93.8765 119.47 95.0469 118.897C102.452 115.3 108.894 110.277 114.483 103.742C114.931 103.223 114.942 103.213 114.92 103.537C114.887 103.969 115.292 104.142 116.495 104.217C118.967 104.358 122.642 103.342 124.797 101.916C128.592 99.4211 130.342 97.79 132.355 94.8734C133.295 93.5232 134.564 92.0973 135.603 91.2332C135.986 90.9199 136.019 90.7039 135.669 90.6499C135.548 90.6391 134.695 90.8335 133.766 91.1036C132.836 91.3736 131.37 91.7625 130.528 91.9677C128.647 92.4322 127.586 92.8211 125.814 93.6528C123.244 94.8626 120.848 96.3965 119.186 97.8764C118.333 98.6433 118.311 98.6541 118.628 98.1896C120.072 96.1049 122.511 91.7085 123.43 89.5481C123.594 89.1592 123.747 88.8243 123.769 88.8027C123.791 88.7811 123.911 88.846 124.031 88.954C124.217 89.1268 124.316 89.1376 124.841 89.0296C126.416 88.7163 129.248 87.4093 130.758 86.3075C131.917 85.4541 133.306 84.0823 133.962 83.1317C134.98 81.6734 138.086 75.8188 139.442 72.7942C139.989 71.5736 140.098 71.1847 139.902 71.1847C139.672 71.1847 134.827 74.2093 132.114 76.0564C129.587 77.7631 128.122 79.1242 126.93 80.8525C126.645 81.263 126.405 81.6194 126.394 81.6302C126.372 81.6518 126.536 81.0685 126.733 80.334C127.356 78.098 128.056 74.7494 128.352 72.5782C128.406 72.1137 128.428 72.0921 128.712 72.1353C128.92 72.1569 129.292 72.0273 129.861 71.7464C132.683 70.299 134.466 68.5059 135.877 65.7297C136.981 63.537 137.528 61.6682 138.294 57.4662C138.578 55.954 138.928 54.2689 139.081 53.718C139.519 52.1733 139.377 51.9897 138.403 52.7998C137.462 53.5775 134.094 57.0018 132.792 58.4924C131.064 60.48 130.025 62.1543 129.27 64.1527L128.964 64.9736L128.953 63.5153C128.953 61.1605 128.57 56.1052 128.33 55.0898L128.264 54.8198L128.527 55.0574C128.767 55.2734 128.822 55.2734 129.205 55.1438C129.752 54.9602 130.681 54.2365 131.469 53.3939C133.525 51.1795 134.433 47.0424 134.116 41.3497C133.984 38.8977 133.667 34.8253 133.591 34.5769C133.492 34.2528 129.762 40.4424 128.625 42.7972C127.662 44.8279 127.542 45.4221 127.52 48.2846L127.509 50.2829L127.247 49.2568C126.711 47.172 126.295 45.7245 125.814 44.2446C125.278 42.5919 123.867 38.9841 123.364 38.0011C122.828 36.9533 123.014 37.1478 123.703 38.3684C124.436 39.6538 124.666 39.859 125.07 39.5998C126.066 38.9517 127.641 35.0954 127.827 32.8702C127.859 32.4381 127.827 31.7144 127.761 31.2499C127.455 29.3271 126.437 25.5896 125.322 22.3275C124.622 20.2643 124.502 19.9834 124.294 19.9834C123.955 19.9834 122.412 23.6561 121.997 25.4924C121.614 27.1343 121.614 33.8424 121.997 34.8577C122.084 35.117 122.139 35.3222 122.117 35.3222C122.095 35.3222 121.8 34.8037 121.461 34.1664C119.427 30.4181 116.867 26.7131 113.892 23.2348C112.569 21.6793 109.145 18.2767 107.691 17.0561C106.848 16.354 106.652 16.1379 106.816 16.1055C107.155 16.0515 107.264 15.9003 107.395 15.371C107.559 14.7445 107.57 12.6489 107.406 11.936C107.187 10.9314 106.717 10.0456 105.612 8.58736C104.716 7.39914 102.32 5.06592 101.062 4.14775C99.8703 3.27279 97.3765 1.72811 97.1578 1.72811C96.939 1.72811 96.9828 2.36543 97.3 3.59685C97.639 4.9579 98.3609 7.34513 98.6234 7.99325C99.0828 9.12746 100.002 10.5101 101.281 12.0116L101.773 12.5841L101.391 12.3356C100.505 11.7631 99.7828 11.3635 97.5625 10.1644L95.2109 8.90061L95.1344 8.2525C94.8828 5.98408 92.9578 3.75888 90.114 2.44104C89.1406 1.98736 83.3437 0.194231 82.3593 0.0430036C81.9875 -0.0218082 81.9218 -0.000204276 81.9218 0.161825C81.9218 0.658716 84.9297 4.48261 86.6797 6.22173C88.3531 7.88523 90.0703 8.825 92.3781 9.34349L93.5047 9.59194L95.9984 11.2878C97.5734 12.3572 98.3719 12.9622 98.164 12.9189C96.5453 12.5949 94.7297 12.5625 93.0562 12.8433C90.2125 13.3294 85.6625 14.7445 85.2031 15.2846C84.9187 15.6194 85.6843 15.7923 89.0422 16.1487C90.4531 16.2892 92.1922 16.4944 92.914 16.5916C95.7578 16.9589 101.631 16.8941 102.867 16.462C103.392 16.2892 103.348 16.2568 105.416 17.9743C107.242 19.4757 107.833 20.0158 107.57 19.9294C105.197 19.0977 101.675 18.7088 98.2625 18.9032C96.3922 19.0005 95.8125 19.1301 95.8125 19.4433C95.8125 19.681 96.064 19.843 97.1797 20.3075C97.6609 20.5019 99.4109 21.2905 101.062 22.0466C106.334 24.4446 108.216 25.0063 111.748 25.2332L112.886 25.3088L113.302 25.8057C114.406 27.1343 116.812 30.3533 116.812 30.5153C116.812 30.5478 116.583 30.4073 116.298 30.2021C115.467 29.6188 113.575 28.6682 112.208 28.1605C108.784 26.8751 104.891 26.0001 104.891 26.5078C104.891 26.5942 105.394 27.1019 106.017 27.6312C107.767 29.1327 112.875 33.2915 113.827 33.9828C115.992 35.5707 119.087 37.3314 120.302 37.6554L121.002 37.8499L121.384 38.6708C122.303 40.6692 123.845 44.6983 123.561 44.3959C121.516 42.1923 120.411 41.1769 119.186 40.3667C116.867 38.8329 112.416 36.6077 112.153 36.8561C112.044 36.9749 112.416 37.5366 113.269 38.5088C114.887 40.3667 116.255 42.3111 117.556 44.6119C117.95 45.2924 118.584 46.2646 118.978 46.7615C120.466 48.6518 123.386 51.2767 125.07 52.2489C125.464 52.4757 125.803 52.735 125.836 52.8214C125.945 53.1779 126.448 56.8829 126.602 58.5464C126.755 60.1775 126.809 61.9275 126.689 61.409C126.317 59.7347 125.191 57.2934 124.261 56.1376C123.386 55.0574 117.294 48.9651 117.184 49.0623C117.009 49.246 119.536 57.1746 120.641 59.8967C121.997 63.2453 123.9 66.3131 125.945 68.4734L126.623 69.1864L126.536 70.0505C126.284 72.481 125.497 77.223 125.322 77.4067C125.3 77.4283 125.223 76.9422 125.147 76.3373C124.873 73.9176 124.217 72.2325 122.128 68.6571C120.192 65.3193 118.869 63.3641 118.628 63.4397C118.431 63.5045 118.431 64.4767 118.617 67.5661C118.891 72.2001 119.208 76.0024 119.448 77.6119C119.766 79.6751 121.187 83.0561 122.423 84.6656L122.937 85.3569L122.325 86.826C121.384 89.0836 118.584 94.6034 118.934 93.5232C118.967 93.4152 119.055 92.7887 119.12 92.1297C119.306 90.4014 119.186 87.1284 118.891 85.5514C118.016 80.8525 116.834 77.6011 116.233 78.1952C116.167 78.26 116.058 78.8649 115.981 79.5563C115.839 80.7553 115.62 81.8031 114.472 86.772C113.695 90.1422 113.509 91.3412 113.455 93.3612C113.389 95.5432 113.542 96.6018 114.264 98.6541L114.734 100.048L114.166 100.761C113.028 102.197 110.206 105.427 110.086 105.427C110.064 105.427 110.097 105.265 110.152 105.071C110.917 102.446 111.191 98.1248 110.852 93.8689C110.753 92.5294 110.644 91.4276 110.633 91.406C110.611 91.3844 110.294 91.9677 109.922 92.7023C108.741 94.9815 106.881 98.2869 106.137 99.4103C104.027 102.597 103.491 104.368 103.228 109.143L103.097 111.584L101.566 112.643C99.6297 113.982 97.0156 115.613 96.9281 115.527C96.9062 115.505 97.0594 115.257 97.2672 114.965C98.4922 113.269 99.7937 110.32 100.461 107.695C100.756 106.561 101.314 103.321 101.259 103.137C101.205 102.986 95.364 108.57 93.7672 110.299C90.3219 114.047 89.3047 115.743 88.8781 118.487L88.7469 119.297L87.1172 119.826C86.2094 120.118 84.7437 120.55 83.8359 120.777L82.1953 121.187L82.6875 120.798C84.525 119.329 87.0187 116.251 88.1562 114.025C88.5172 113.323 89.0203 111.833 89.0312 111.454C89.0312 111.411 88.4515 111.649 87.7515 111.984C85.9359 112.826 85.1047 113.172 82.8515 114.015C79.3515 115.311 78.0718 116.089 76.3875 117.968C74.8562 119.675 73.8828 121.295 73.9703 121.965L74.025 122.354L73.3578 122.429C72.9968 122.462 71.3781 122.494 69.7703 122.494C67.55 122.494 66.8172 122.462 66.7515 122.354C66.7078 122.289 66.4453 121.706 66.1609 121.068C65.8875 120.431 65.4828 119.632 65.2859 119.297C63.8859 117.017 61.764 115.57 57.5312 114.015C55.2015 113.15 53.7359 112.535 52.4234 111.833C51.8 111.508 51.2968 111.292 51.2968 111.346C51.2968 111.627 51.8 113.01 52.139 113.69C53.2984 115.959 56.175 119.48 57.9906 120.852C58.2859 121.068 58.4828 121.263 58.4281 121.284C58.2093 121.349 53.5718 120.107 52.0078 119.545L51.5703 119.394L51.4937 118.605C51.2203 116.013 50.2359 114.263 47.2172 111.044C46.4625 110.245 44.3406 108.073 42.5031 106.237L39.1453 102.889L39.2109 103.375C39.6593 106.669 40.6765 110.353 41.7922 112.664C42.3718 113.852 42.7547 114.501 43.4547 115.462L43.8812 116.034L43.3562 115.732C41.2672 114.555 37.4062 112.059 37.2422 111.8C37.2093 111.757 37.275 111.314 37.3734 110.817C37.9531 107.782 36.4984 102.759 33.7968 98.5245C33.0203 97.3147 31.3687 94.355 30.45 92.5402C30.1875 92.0217 29.925 91.6005 29.8703 91.6005C29.6515 91.6005 29.5531 99.7235 29.75 102.111C29.8812 103.699 30.1547 104.822 30.625 105.773L30.964 106.453L30.3953 105.913C29.564 105.114 27.3875 102.694 26.3703 101.441L25.4953 100.35L25.7031 99.9936C26.2828 99.0862 26.8734 96.3533 26.9828 94.1281C27.0812 92.0757 26.775 90.099 25.4734 84.4171C24.6531 80.8849 24.2812 78.973 24.2812 78.3248C24.2812 77.8496 24.1281 77.5579 23.9531 77.7307C23.8875 77.7955 23.6359 78.2924 23.4062 78.8325C22.2797 81.425 20.8906 88.1438 21.0328 90.3582C21.0984 91.244 21.5578 94.2037 21.7218 94.6898C21.7547 94.8086 21.525 94.4846 21.2187 93.9769C20.4312 92.6914 18.3968 88.5975 17.675 86.8476L17.0843 85.4001L17.4562 85.1193C18.6703 84.2227 20.4312 80.6905 20.8359 78.3356C21.3281 75.4839 22.1484 64.0662 21.875 63.7962C21.5796 63.5045 20.0156 65.6649 18.1453 68.9703C16.0234 72.7294 15.3671 74.7386 15.214 77.936L15.1484 79.4482L14.8968 78.4221C14.3281 76.1212 13.7921 73.1183 13.5625 70.9687C13.4968 70.3422 13.4203 69.6941 13.3984 69.5212C13.3546 69.2512 13.3656 69.2296 13.5078 69.3484C13.7484 69.5428 13.989 69.2944 15.4765 67.35C17.0843 65.2329 18.4843 63.1697 18.9218 62.2623C19.25 61.571 20.4093 58.4924 20.65 57.6823C20.7046 57.477 20.9671 56.6777 21.2078 55.9108C21.864 53.8908 22.9359 50.3586 23.0562 49.8185C23.1218 49.57 23.1218 49.3648 23.0781 49.3648C22.8047 49.3648 17.9593 54.0528 16.8218 55.4139C15.1593 57.4014 14.0109 59.7995 13.3984 62.5756C13.289 63.0401 13.1906 63.3965 13.1687 63.3749C13.0921 63.3101 13.3437 58.9785 13.4968 57.5203C13.5843 56.7425 13.7593 55.3707 13.9015 54.4633C14.0984 53.1347 14.175 52.8214 14.3171 52.8214C14.5796 52.8214 15.2906 52.3893 16.4281 51.5576C19.0421 49.6348 20.9671 47.4312 24.3359 42.5055C25.2218 41.1985 26.5125 39.3946 27.2015 38.498C27.8797 37.6014 28.4375 36.7913 28.4375 36.6941C28.4375 36.4564 28.0875 36.5752 26.7203 37.2558C24.1937 38.5088 20.464 40.7988 19.1953 41.8682C18.3968 42.5487 17.2046 43.8882 16.4281 44.9792C16.1765 45.3356 15.9687 45.5949 15.9687 45.5625C15.9687 45.2168 17.6203 40.8852 18.4406 39.0381L18.9328 37.9579L19.5671 37.8283C20.7265 37.5906 23.3734 36.1972 25.9218 34.4905C27.7156 33.2806 28.8422 32.4165 30.5703 30.8934C31.3578 30.2021 32.6375 29.1327 33.414 28.4954C35.1203 27.1235 35.4593 26.7995 35.4156 26.5834C35.3609 26.3134 34.3 26.389 32.6484 26.7779C29.1156 27.6096 26.2172 28.8518 23.8 30.5586C23.3297 30.8934 22.8375 31.2391 22.7172 31.3255C22.2468 31.6604 25.6812 26.8751 26.8406 25.6005C27.125 25.2872 27.1468 25.2764 28.175 25.2764C31.0187 25.2764 34.2125 24.4446 37.789 22.7703C38.8172 22.2951 40.4578 21.5389 41.4531 21.1068C44.0781 19.951 44.4609 19.7566 44.4937 19.4865C44.5156 19.3029 44.439 19.2273 44.1656 19.1193C43.1922 18.7844 38.0297 18.806 35.7656 19.1625C34.7265 19.3245 33.1625 19.735 32.3968 20.0374L31.9922 20.1995L32.539 19.7134C33.3593 18.9788 35.4047 17.2829 36.1593 16.7212L36.8156 16.2243L37.6906 16.4728C39.8343 17.0777 42.9734 17.0993 47.6328 16.5268C51.275 16.0839 53.2656 15.8787 54.0203 15.8679C54.7093 15.8679 55.3547 15.6842 55.4312 15.4682C55.5297 15.1441 51.8328 13.7615 49.4812 13.243C48.825 13.0918 47.8078 12.9189 47.2172 12.8433C45.8609 12.6813 42.6453 12.7785 41.7265 13.0054C41.3656 13.0918 41.0593 13.1458 41.0484 13.135C41.0375 13.1242 41.4531 12.7893 41.9781 12.4005C42.5031 12.0116 43.5859 11.2014 44.3843 10.5965C45.1937 10.0024 45.8937 9.53793 45.9484 9.57034C46.1781 9.69996 48.3765 9.3759 49.2078 9.08425C51.0125 8.45773 52.9703 7.04268 54.939 4.9471C57.5203 2.19259 58.7562 0.399468 58.2859 0.0970134C58.1 -0.0218082 58.1218 -0.0218082 57.5859 0.172627Z" fill="#FFA800" fill-opacity="0.8"/>
<path d="M111.289 9.28972C111.311 10.0891 111.366 11.8174 111.399 13.1244C111.475 16.0193 111.628 17.7045 111.902 18.7846C112.186 19.8864 113.258 21.9928 114.122 23.1162C115.106 24.4125 117.338 26.4648 117.753 26.4648C118.596 26.4648 119.131 21.5175 118.552 18.9575C118.103 16.9159 117.042 14.8959 115.194 12.5303C114.494 11.6445 112.153 8.84684 111.53 8.16632L111.224 7.83146L111.289 9.28972Z" fill="#FFA800" fill-opacity="0.8"/>
<path d="M123.594 108.203C116.802 108.679 114.756 108.927 112.317 109.532C109.364 110.267 107.221 111.293 104.639 113.183C102.933 114.436 102.474 115.03 102.758 115.592C103.174 116.37 106.608 117.104 109.102 116.942C111.978 116.748 115.325 115.668 118.202 114.004C121.505 112.092 126.241 108.906 126.405 108.484C126.438 108.398 126.405 108.279 126.317 108.225C126.175 108.139 124.688 108.128 123.594 108.203Z" fill="#FFA800" fill-opacity="0.8"/>
</svg>
