<svg width="16" height="14" viewBox="0 0 16 14" fill="none" xmlns="http://www.w3.org/2000/svg">
<path fill-rule="evenodd" clip-rule="evenodd" d="M0.000976562 6.99989C0.000976562 6.73473 0.106313 6.48042 0.293813 6.29292C0.481312 6.10542 0.735616 6.00009 1.00078 6.00009H12.5845L8.29135 1.70893C8.10361 1.52119 7.99815 1.26657 7.99815 1.00107C7.99815 0.735568 8.10361 0.480942 8.29135 0.293206C8.47909 0.105469 8.73371 0 8.99921 0C9.26471 0 9.51934 0.105469 9.70707 0.293206L15.7059 6.29203C15.799 6.3849 15.8729 6.49523 15.9233 6.6167C15.9737 6.73817 15.9996 6.86838 15.9996 6.99989C15.9996 7.1314 15.9737 7.26162 15.9233 7.38308C15.8729 7.50455 15.799 7.61488 15.7059 7.70775L9.70707 13.7066C9.51934 13.8943 9.26471 13.9998 8.99921 13.9998C8.73371 13.9998 8.47909 13.8943 8.29135 13.7066C8.10361 13.5188 7.99815 13.2642 7.99815 12.9987C7.99815 12.7332 8.10361 12.4786 8.29135 12.2909L12.5845 7.9997H1.00078C0.735616 7.9997 0.481312 7.89436 0.293813 7.70686C0.106313 7.51936 0.000976562 7.26506 0.000976562 6.99989Z" fill="white"/>
</svg>
