<svg width="24" height="24" viewBox="0 0 24 24" fill="none" xmlns="http://www.w3.org/2000/svg">
<path d="M24 10.5844C24 4.34356 19.1495 0 12.1769 0C4.95183 0 0 4.87572 0 11.9937C0 19.3409 4.82027 24 12.427 24C14.2861 24 16.0697 23.7413 17.3961 23.2954V21.4822C16.4687 21.9008 14.4759 22.1721 12.4572 22.1721C6.14666 22.1721 2.07692 18.2177 2.07692 12.0799C2.07692 6.09781 6.21999 1.81315 11.9849 1.81315C17.8835 1.81315 21.9231 5.36372 21.9231 10.555C21.9231 14.0929 20.7283 16.3793 18.8692 16.3793C17.8081 16.3793 17.2042 15.7904 17.2042 14.7807V6.34391H14.9784V8.09816H14.7412C14.1675 6.84663 12.8411 6.07047 11.2904 6.07047C8.27103 6.07047 6.16175 8.51464 6.16175 12.0084C6.16175 15.6621 8.22574 18.1209 11.2926 18.1209C13.018 18.1209 14.3444 17.3006 14.9784 15.8345H15.2157C15.3904 17.2438 16.7318 18.2493 18.4572 18.2493C21.8476 18.2493 24 15.2729 24 10.5865V10.5844ZM8.52121 12.0652C8.52121 9.54741 9.68584 8.05399 11.6614 8.05399C13.6671 8.05399 14.9482 9.60631 14.9482 12.0652C14.9482 14.5241 13.652 16.0911 11.6312 16.0911C9.70093 16.0911 8.52121 14.5662 8.52121 12.0652Z" fill="white" fill-opacity="0.4"/>
</svg>
