<svg width="80" height="80" viewBox="0 0 80 80" fill="none" xmlns="http://www.w3.org/2000/svg">
<path fill-rule="evenodd" clip-rule="evenodd" d="M40 79C61.5391 79 79 61.5391 79 40C79 18.4609 61.5391 1 40 1C18.4609 1 1 18.4609 1 40C1 61.5391 18.4609 79 40 79ZM40 80C62.0914 80 80 62.0914 80 40C80 17.9086 62.0914 0 40 0C17.9086 0 0 17.9086 0 40C0 62.0914 17.9086 80 40 80Z" fill="white" fill-opacity="0.8"/>
<path fill-rule="evenodd" clip-rule="evenodd" d="M36 46.9297L48 40.0015L36 33.0733L36 46.9297ZM49 41.7336C50.3333 40.9637 50.3333 39.0392 49 38.2694L37 31.3412C35.6667 30.5714 34 31.5337 34 33.0733L34 46.9297C34 48.4693 35.6667 49.4316 37 48.6618L49 41.7336Z" fill="white" fill-opacity="0.8"/>
</svg>
