<svg width="182" height="24" viewBox="0 0 182 24" fill="none" xmlns="http://www.w3.org/2000/svg">
<g clip-path="url(#clip0_1882_66097)">
<path fill-rule="evenodd" clip-rule="evenodd" d="M12.5432 18.4401C12.5432 19.5565 12.2975 20.5122 11.8064 21.3077C11.3147 22.1029 10.589 22.7056 9.62878 23.1155C8.66812 23.5254 7.50012 23.7303 6.12405 23.7303C4.8107 23.7303 3.68525 23.5081 2.74697 23.0637C1.80918 22.6191 1.11659 22.0633 0.669957 21.3967C0.223565 20.7295 0 20.0602 0 19.3885C0 18.9438 0.143141 18.5636 0.42893 18.2473C0.715211 17.9312 1.07675 17.7732 1.51454 17.7732C1.89895 17.7732 2.19335 17.8768 2.3992 18.0844C2.60457 18.292 2.80108 18.5833 2.98849 18.9587C3.3638 19.68 3.8129 20.2185 4.33554 20.5739C4.85817 20.9299 5.57043 21.1076 6.47281 21.1076C7.20523 21.1076 7.80583 20.9269 8.2751 20.5667C8.74436 20.2061 8.9785 19.7935 8.9785 19.3289C8.9785 18.6178 8.73526 18.0992 8.24804 17.7729C7.76156 17.4469 6.95978 17.136 5.84269 16.8391C4.5832 16.4939 3.5581 16.1307 2.76763 15.7505C1.97691 15.3697 1.34508 14.8687 0.871386 14.2463C0.397941 13.6234 0.161095 12.8575 0.161095 11.9488C0.161095 11.1387 0.379986 10.3729 0.81777 9.65178C1.25555 8.93043 1.90067 8.3547 2.7541 7.92512C3.60754 7.49555 4.63706 7.28063 5.84269 7.28063C6.78983 7.28063 7.64056 7.3893 8.39561 7.60692C9.15067 7.824 9.78029 8.11551 10.2852 8.48117C10.7901 8.84656 11.1743 9.2516 11.4377 9.69627C11.7011 10.1407 11.833 10.5754 11.833 11.0004C11.833 11.4647 11.6925 11.8449 11.4109 12.1413C11.1293 12.4379 10.7296 12.5862 10.2114 12.5862C9.83612 12.5862 9.51688 12.4676 9.25322 12.2303C8.98957 11.9933 8.68804 11.6376 8.34888 11.1632C8.0717 10.7682 7.74582 10.4521 7.37051 10.2148C6.99544 9.97753 6.48609 9.85888 5.84269 9.85888C5.18208 9.85888 4.63215 10.0147 4.19485 10.3262C3.75707 10.6371 3.53793 11.0252 3.53793 11.4895C3.53793 11.9142 3.69878 12.2624 4.02023 12.5342C4.34193 12.8058 4.77529 13.0307 5.3203 13.2084C5.86507 13.3863 6.6157 13.6034 7.57145 13.8604C8.70624 14.1667 9.63297 14.5321 10.3524 14.9571C11.0713 15.3818 11.6165 15.8834 11.9869 16.4613C12.358 17.04 12.5432 17.6988 12.5432 18.4401ZM25.7938 15.5056C25.7938 13.8558 25.4613 12.5717 24.796 11.6527C24.131 10.7339 23.2367 10.2747 22.1147 10.2747C21.3907 10.2747 20.7527 10.4796 20.201 10.8895C19.6486 11.2994 19.2229 11.9045 18.9246 12.7049C18.6257 13.505 18.4764 14.4388 18.4764 15.5056C18.4764 16.5627 18.6233 17.4866 18.9179 18.2767C19.2121 19.0673 19.6329 19.6722 20.1804 20.0923C20.7276 20.5119 21.3729 20.722 22.1147 20.722C23.2367 20.722 24.131 20.26 24.796 19.3365C25.4613 18.4126 25.7938 17.1357 25.7938 15.5056ZM29.5135 15.5056C29.5135 16.7107 29.3418 17.8223 28.9978 18.84C28.6542 19.8574 28.1561 20.732 27.5044 21.463C26.8526 22.1941 26.0745 22.7547 25.1694 23.1449C24.2643 23.5351 23.2463 23.7303 22.1147 23.7303C20.9925 23.7303 19.9836 23.5327 19.0874 23.1376C18.1916 22.7423 17.4154 22.1768 16.759 21.4406C16.1031 20.7045 15.6053 19.8353 15.2661 18.8327C14.9262 17.8296 14.7568 16.7207 14.7568 15.5056C14.7568 14.2805 14.9289 13.1593 15.2725 12.1418C15.6166 11.1241 16.1097 10.2547 16.7524 9.53339C17.395 8.81205 18.1734 8.25654 19.0874 7.86634C20.0013 7.47614 21.0107 7.2809 22.115 7.2809C23.2367 7.2809 24.2554 7.47856 25.1696 7.87362C26.0833 8.26894 26.8666 8.83173 27.5184 9.56306C28.1699 10.2941 28.6655 11.1635 29.0044 12.1712C29.3443 13.179 29.5135 14.2905 29.5135 15.5056ZM45.7459 18.751C45.7459 19.255 45.6077 19.7935 45.3315 20.3663C45.0553 20.9396 44.6343 21.4854 44.0683 22.004C43.5022 22.5225 42.7894 22.9402 41.9286 23.2563C41.0688 23.5723 40.0993 23.7303 39.0215 23.7303C36.7305 23.7303 34.9418 23.0017 33.656 21.5447C32.3697 20.0875 31.727 18.1335 31.727 15.6833C31.727 14.0238 32.0214 12.5566 32.6097 11.2822C33.1985 10.008 34.05 9.02238 35.1636 8.32557C36.2778 7.6293 37.6091 7.2809 39.1578 7.2809C40.1175 7.2809 40.9982 7.43434 41.7997 7.74041C42.601 8.04674 43.2803 8.4418 43.8374 8.92611C44.3945 9.41016 44.8202 9.92656 45.1141 10.4745C45.4085 11.023 45.5558 11.5343 45.5558 12.0081C45.5558 12.4927 45.3903 12.9026 45.06 13.2383C44.7295 13.574 44.3286 13.7423 43.8578 13.7423C43.5496 13.7423 43.2941 13.656 43.09 13.4829C42.8863 13.3098 42.6578 13.0309 42.4043 12.6456C41.9512 11.8948 41.478 11.3315 40.9844 10.9561C40.4911 10.5808 39.8639 10.3931 39.1034 10.3931C38.0073 10.3931 37.1246 10.8599 36.4541 11.7934C35.7842 12.7273 35.4492 14.0041 35.4492 15.6243C35.4492 16.385 35.5353 17.084 35.7074 17.7212C35.8791 18.3587 36.1282 18.9018 36.4541 19.3513C36.7805 19.8008 37.1742 20.1417 37.6364 20.3738C38.098 20.606 38.6052 20.722 39.1575 20.722C39.9001 20.722 40.5363 20.5343 41.0661 20.1592C41.5959 19.7836 42.0644 19.2105 42.4724 18.4398C42.6987 17.9854 42.9429 17.6298 43.2053 17.373C43.4685 17.116 43.7899 16.9877 44.1699 16.9877C44.623 16.9877 44.9988 17.1754 45.2976 17.5507C45.5964 17.9261 45.7459 18.3266 45.7459 18.751ZM52.3865 9.6898V21.2899C52.3865 22.0935 52.2109 22.7016 51.8597 23.1131C51.508 23.5249 51.0621 23.7303 50.5215 23.7303C49.9809 23.7303 49.5416 23.52 49.2039 23.0982C48.8658 22.677 48.6973 22.0741 48.6973 21.2899V9.8071C48.6973 9.01321 48.8658 8.41564 49.2039 8.01357C49.5416 7.61178 49.9811 7.41088 50.5215 7.41088C51.0621 7.41088 51.508 7.61178 51.8597 8.01357C52.2109 8.41537 52.3865 8.97411 52.3865 9.6898ZM50.5623 5.54373C50.0485 5.54373 49.6093 5.37196 49.244 5.02867C48.8795 4.68566 48.6973 4.20054 48.6973 3.5733C48.6973 3.00485 48.8842 2.53672 49.2581 2.16944C49.6319 1.80189 50.0662 1.61798 50.5621 1.61798C51.0392 1.61798 51.4627 1.78463 51.8324 2.11793C52.2018 2.45124 52.3865 2.93636 52.3865 3.57303C52.3865 4.19056 52.2065 4.67326 51.8459 5.02112C51.4856 5.36926 51.0576 5.54346 50.5623 5.54346V5.54373ZM65.3621 15.6092C64.8272 15.826 64.049 16.0555 63.0278 16.2971C62.0067 16.5387 61.3001 16.7161 60.9078 16.8294C60.5152 16.9432 60.1407 17.1649 59.7838 17.4952C59.4272 17.8255 59.2489 18.2867 59.2489 18.8783C59.2489 19.4899 59.4587 20.0098 59.8775 20.4391C60.2966 20.8679 60.8453 21.0822 61.5231 21.0822C62.2452 21.0822 62.912 20.907 63.5227 20.5575C64.1339 20.2072 64.582 19.756 64.8673 19.2038C65.1971 18.5925 65.3621 17.5866 65.3621 16.1862V15.6092ZM65.6031 21.4522C64.7202 22.2116 63.8663 22.7811 63.0414 23.1608C62.2162 23.5405 61.2912 23.7303 60.2656 23.7303C59.3293 23.7303 58.5069 23.5254 57.7978 23.1163C57.0885 22.7072 56.5425 22.1525 56.1588 21.4522C55.7789 20.7657 55.5799 19.9771 55.5838 19.1741C55.5838 18.0693 55.9006 17.1279 56.5334 16.3489C57.1664 15.5698 58.0361 15.0469 59.1419 14.7808C59.3738 14.7217 59.9488 14.5882 60.8677 14.3811C61.6575 14.2054 62.4446 14.0157 63.2288 13.8121C63.884 13.6393 64.5952 13.4298 65.3621 13.1833C65.3178 12.1181 65.1235 11.3366 64.7799 10.8388C64.4371 10.3405 63.7256 10.0919 62.6466 10.0919C61.7194 10.0919 61.0214 10.2345 60.5534 10.5206C60.0848 10.8065 59.6839 11.2355 59.3495 11.8075C59.015 12.3794 58.7784 12.7567 58.6404 12.9392C58.5022 13.1215 58.2058 13.2127 57.7511 13.2127C57.3403 13.2127 56.9862 13.0671 56.6873 12.7764C56.3885 12.4857 56.2392 12.1133 56.2392 11.6594C56.2392 10.9494 56.4665 10.2591 56.9217 9.58867C57.3765 8.91802 58.0851 8.36575 59.0482 7.93187C60.0113 7.49798 61.2108 7.2809 62.6466 7.2809C64.2517 7.2809 65.5138 7.4907 66.4325 7.91002C67.3508 8.32881 67.9994 8.99218 68.3786 9.89933C68.7576 10.8067 68.9473 12.0097 68.9473 13.5088C68.9482 15.0472 68.9393 16.5857 68.9204 18.124C68.9204 18.8831 69.0343 19.6746 69.2616 20.4979C69.4891 21.3214 69.6027 21.8516 69.6027 22.0881C69.6027 22.5023 69.4266 22.8796 69.0744 23.2199C68.722 23.5602 68.3228 23.7303 67.8772 23.7303C67.5026 23.7303 67.1324 23.5356 66.7667 23.146C66.401 22.7566 66.0131 22.1919 65.6031 21.4522ZM72.5541 2.45097C72.5541 1.6436 72.7183 1.03362 73.0469 0.619955C73.376 0.207101 73.8197 0 74.3782 0C74.937 0 75.3876 0.204405 75.7299 0.612674C76.0723 1.02121 76.2432 1.63416 76.2432 2.45124V21.2791C76.2432 22.0962 76.0699 22.7089 75.7228 23.1174C75.3763 23.5259 74.9279 23.7301 74.3782 23.7301C73.8376 23.7301 73.3984 23.5184 73.0607 23.0953C72.7228 22.6719 72.5541 22.0668 72.5541 21.2791V2.45124V2.45097ZM83.8012 15.6248C83.8012 17.2293 84.1334 18.4617 84.7975 19.3232C85.4615 20.1843 86.3327 20.6149 87.4114 20.6149C88.3288 20.6149 89.12 20.1743 89.7843 19.2936C90.4481 18.4126 90.7799 17.1503 90.7799 15.5067C90.7799 14.444 90.6419 13.5285 90.3655 12.7607C90.0893 11.993 89.6972 11.4 89.1891 10.9815C88.6812 10.5635 88.0885 10.3545 87.4114 10.3545C86.7159 10.3545 86.0963 10.5635 85.5528 10.9815C85.0092 11.4 84.5813 12.0051 84.2694 12.7977C83.9576 13.5899 83.8014 14.5324 83.8014 15.6248H83.8012ZM83.6278 3.65124V9.80764C84.314 9.02076 85.0134 8.4178 85.7267 7.99955C86.4397 7.58103 87.3221 7.37205 88.3738 7.37205C89.5858 7.37205 90.6488 7.68917 91.562 8.32396C92.4757 8.95901 93.1842 9.87937 93.6879 11.0853C94.1916 12.2907 94.4432 13.7202 94.4432 15.374C94.4432 16.5945 94.3028 17.7139 94.0222 18.7329C93.7416 19.7515 93.3335 20.6349 92.7991 21.3827C92.2642 22.131 91.6156 22.7091 90.8537 23.1177C90.0912 23.5259 89.2513 23.7303 88.3335 23.7303C87.772 23.7303 87.2439 23.6565 86.7488 23.5092C86.2545 23.3612 85.8332 23.1667 85.4856 22.9259C85.1381 22.6846 84.8418 22.436 84.5968 22.1798C84.3513 21.9241 84.0287 21.5401 83.6275 21.0283V21.4274C83.6275 22.1849 83.4627 22.7585 83.1329 23.1471C82.8029 23.5359 82.3843 23.7303 81.8761 23.7303C81.3592 23.7303 80.9467 23.5362 80.6395 23.1471C80.3321 22.7585 80.1784 22.1852 80.1784 21.4274V2.48036C80.1784 1.66328 80.3279 1.04575 80.6263 0.627506C80.9251 0.208989 81.3417 0 81.8761 0C82.4381 0 82.8698 0.199551 83.1733 0.597843C83.476 0.996674 83.6278 1.56512 83.6278 2.30292V3.65124ZM142.649 18.4401C142.649 19.5565 142.403 20.5122 141.912 21.3077C141.42 22.1029 140.694 22.7056 139.734 23.1155C138.774 23.5254 137.606 23.7303 136.23 23.7303C134.916 23.7303 133.791 23.5081 132.853 23.0637C131.915 22.6191 131.222 22.0633 130.776 21.3967C130.329 20.7295 130.105 20.0605 130.105 19.3885C130.105 18.9438 130.249 18.5636 130.534 18.2473C130.821 17.9312 131.182 17.7732 131.62 17.7732C132.004 17.7732 132.299 17.8768 132.505 18.0844C132.71 18.292 132.906 18.5833 133.094 18.9587C133.469 19.68 133.918 20.2185 134.441 20.5739C134.964 20.9299 135.676 21.1076 136.578 21.1076C137.311 21.1076 137.911 20.9269 138.381 20.5667C138.85 20.2061 139.084 19.7935 139.084 19.3289C139.084 18.6178 138.841 18.0992 138.353 17.7729C137.867 17.4469 137.065 17.136 135.948 16.8391C134.689 16.4939 133.663 16.1307 132.873 15.7505C132.082 15.3697 131.45 14.8687 130.977 14.2463C130.503 13.6234 130.267 12.8578 130.267 11.949C130.267 11.139 130.485 10.3731 130.923 9.65205C131.361 8.9307 132.006 8.35497 132.86 7.92539C133.713 7.49582 134.742 7.2809 135.948 7.2809C136.895 7.2809 137.746 7.38957 138.501 7.60719C139.256 7.82427 139.886 8.11578 140.391 8.48144C140.896 8.84683 141.28 9.25187 141.543 9.69654C141.807 10.1409 141.938 10.5756 141.938 11.0006C141.938 11.465 141.798 11.8452 141.516 12.1416C141.235 12.4382 140.835 12.5865 140.317 12.5865C139.942 12.5865 139.622 12.4679 139.359 12.2306C139.095 11.9935 138.793 11.6378 138.454 11.1635C138.177 10.7684 137.851 10.4524 137.476 10.2151C137.101 9.9778 136.591 9.85915 135.948 9.85915C135.287 9.85915 134.738 10.015 134.3 10.3265C133.862 10.6374 133.643 11.0254 133.643 11.4898C133.643 11.9145 133.804 12.2627 134.126 12.5345C134.447 12.806 134.881 13.0309 135.426 13.2086C135.97 13.3866 136.721 13.6037 137.677 13.8607C138.812 14.167 139.738 14.5324 140.458 14.9574C141.177 15.3821 141.722 15.8837 142.092 16.4616C142.463 17.0397 142.649 17.6988 142.649 18.4401ZM146.066 7.71371H146.466V4.21618C146.466 3.5671 146.482 3.05852 146.513 2.68989C146.544 2.32099 146.631 2.0036 146.773 1.73825C146.916 1.46319 147.12 1.23937 147.387 1.06733C147.654 0.895281 147.952 0.808989 148.281 0.808989C148.744 0.808989 149.162 1.00072 149.536 1.38418C149.781 1.63264 149.947 1.96108 150.01 2.32099C150.077 2.68962 150.11 3.21303 150.11 3.89178V7.71371H151.937C152.453 7.71371 152.847 7.84854 153.118 8.11928C153.389 8.38948 153.525 8.736 153.525 9.1591C153.525 9.69978 153.332 10.0781 152.945 10.2944C152.557 10.5109 152.003 10.6191 151.283 10.6191H150.11V18.0227C150.11 18.6518 150.13 19.1364 150.17 19.4756C150.21 19.8146 150.317 20.0899 150.491 20.301C150.664 20.5127 150.946 20.6184 151.338 20.6184C151.551 20.6184 151.841 20.5769 152.206 20.493C152.57 20.4094 152.855 20.3676 153.06 20.3676C153.354 20.3676 153.618 20.4979 153.854 20.7584C154.09 21.0191 154.208 21.3411 154.208 21.7246C154.208 22.3734 153.888 22.8701 153.247 23.2142C152.606 23.5586 151.685 23.7303 150.484 23.7303C149.345 23.7303 148.482 23.5189 147.894 23.0964C147.307 22.6733 146.922 22.0884 146.74 21.3411C146.557 20.5939 146.466 19.5959 146.466 18.3471V10.6191H145.494C144.968 10.6191 144.568 10.4815 144.292 10.2062C144.016 9.93088 143.878 9.58166 143.878 9.1591C143.878 8.736 144.023 8.38948 144.312 8.11928C144.601 7.84854 145.022 7.71371 145.574 7.71371H146.066ZM158.468 14.2185H165.153C165.063 12.8378 164.724 11.805 164.134 11.1196C163.544 10.4343 162.768 10.0913 161.804 10.0913C160.885 10.0913 160.131 10.4389 159.542 11.1344C158.952 11.8296 158.594 12.8575 158.468 14.2185H158.468ZM165.68 16.5115H158.468C158.477 17.4286 158.646 18.2373 158.975 18.9373C159.303 19.6379 159.74 20.1654 160.285 20.5203C160.829 20.8754 161.43 21.0529 162.088 21.0529C162.529 21.0529 162.931 20.9962 163.296 20.883C163.661 20.7694 164.014 20.5917 164.356 20.3501C164.688 20.117 165.004 19.8575 165.302 19.5738C165.59 19.2976 165.964 18.9228 166.423 18.4495C166.612 18.2716 166.882 18.1831 167.233 18.1831C167.611 18.1831 167.918 18.2964 168.152 18.5231C168.385 18.7499 168.503 19.0706 168.503 19.485C168.503 19.8496 168.372 20.2765 168.111 20.7643C167.85 21.2527 167.456 21.7208 166.929 22.1698C166.403 22.6185 165.741 22.9907 164.944 23.2862C164.147 23.5828 163.231 23.7303 162.196 23.7303C159.828 23.7303 157.986 22.9907 156.672 21.5116C155.357 20.0325 154.7 18.0254 154.7 15.4905C154.7 14.2975 154.862 13.1903 155.186 12.1699C155.511 11.1489 155.983 10.2739 156.604 9.54418C157.226 8.81447 157.991 8.25465 158.901 7.86526C159.81 7.4756 160.818 7.2809 161.926 7.2809C163.366 7.2809 164.602 7.61366 165.633 8.27946C166.664 8.94472 167.436 9.80575 167.949 10.8607C168.462 11.9161 168.719 12.991 168.719 14.0856C168.719 15.1011 168.453 15.7596 167.922 16.0603C167.391 16.361 166.644 16.5115 165.68 16.5115ZM175.587 17.8916V21.2705C175.587 22.0902 175.412 22.7051 175.062 23.1152C174.713 23.5251 174.269 23.7303 173.731 23.7303C173.203 23.7303 172.768 23.5227 172.427 23.108C172.086 22.6929 171.916 22.0805 171.916 21.2702V10.0075C171.916 8.18966 172.512 7.2809 173.704 7.2809C174.314 7.2809 174.753 7.49339 175.022 7.91811C175.291 8.3431 175.439 8.97007 175.466 9.80009C175.905 8.97007 176.355 8.3431 176.817 7.91784C177.279 7.49339 177.895 7.2809 178.666 7.2809C179.437 7.2809 180.185 7.49339 180.911 7.91811C181.637 8.3431 182 8.90589 182 9.60755C182 10.1013 181.845 10.509 181.536 10.8302C181.227 11.1511 180.893 11.3118 180.534 11.3118C180.4 11.3118 180.075 11.2201 179.559 11.0376C179.044 10.8547 178.589 10.7636 178.195 10.7636C177.657 10.7636 177.218 10.9189 176.877 11.2304C176.537 11.5413 176.272 12.0032 176.084 12.6156C175.896 13.2283 175.766 13.9569 175.694 14.8015C175.623 15.6464 175.587 16.6762 175.587 17.8916Z" fill="white"/>
<path fill-rule="evenodd" clip-rule="evenodd" d="M126.773 10.9631C125.95 9.15958 124.177 7.01172 120.395 7.01172C115.923 7.01172 112.997 11.0027 110.414 14.5275C108.266 17.4595 106.235 20.2301 103.826 20.2301C101.346 20.2301 99.8234 17.4048 99.8234 15.3786C99.8234 13.503 101.5 10.7794 104.126 10.7794C106.671 10.7794 108.029 13.0616 108.083 13.153C108.573 14.034 109.623 14.3118 110.422 13.7732C111.225 13.2304 111.48 12.0692 110.991 11.1788C110.75 10.7519 108.519 7.01172 104.126 7.01172C99.5797 7.01172 96.4111 11.4221 96.4111 15.3786C96.4111 19.4561 99.4559 24.0005 103.825 24.0005C107.864 24.0005 110.509 20.3913 113.07 16.8938C115.375 13.7511 117.553 10.7794 120.395 10.7794C122.059 10.7794 123.148 11.3946 123.724 12.6571C124.238 13.7859 124.236 15.0781 124.234 15.5048C124.234 15.7553 124.113 17.0203 123.552 18.1636C122.928 19.4337 122.042 20.0267 120.765 20.0267C118.119 20.0267 116.683 18.1167 116.131 17.3848C115.988 17.1963 115.877 17.0502 115.728 16.9089C115.381 16.5812 114.945 16.43 114.485 16.4599C114.262 16.4787 114.043 16.546 113.844 16.658C113.644 16.7699 113.466 16.9243 113.321 17.1122C112.734 17.8689 112.782 19.0047 113.451 19.7217L113.515 19.8059C114.257 20.7928 116.516 23.7945 120.764 23.7945C125.964 23.7945 127.646 18.1936 127.646 15.4824C127.648 13.756 127.353 12.2356 126.773 10.9628" fill="#F67555"/>
</g>
<defs>
<clipPath id="clip0_1882_66097">
<rect width="182" height="24" fill="white"/>
</clipPath>
</defs>
</svg>
